<?xml version="1.0" standalone="no"?>
<!DOCTYPE svg PUBLIC "-//W3C//DTD SVG 20010904//EN"
 "http://www.w3.org/TR/2001/REC-SVG-20010904/DTD/svg10.dtd">
<svg version="1.0" xmlns="http://www.w3.org/2000/svg"
 width="50" height="50" viewBox="0 0 626.000000 626.000000"
 preserveAspectRatio="xMidYMid meet">

<g transform="translate(0.000000,626.000000) scale(0.100000,-0.100000)"
fill="pink" stroke="none">
<path d="M2925 4860 c-557 -30 -910 -268 -1049 -708 -45 -142 -54 -240 -60
-627 l-6 -360 23 60 c146 367 376 563 753 639 155 31 234 37 699 46 593 11
742 27 926 96 198 74 350 248 439 501 44 128 95 326 87 346 -4 11 -143 14
-834 14 -455 0 -895 -3 -978 -7z"/>
<path d="M2488 2695 c-270 -45 -445 -158 -572 -369 -65 -107 -96 -205 -95
-293 1 -73 15 -199 18 -160 1 16 17 17 276 11 320 -7 442 -1 448 24 3 10 6 -1
7 -23 1 -22 6 -51 10 -65 8 -22 9 -21 8 10 -3 69 2 90 18 90 10 0 14 -6 10
-17 -3 -10 -8 -31 -11 -48 -5 -24 -2 -22 14 13 29 60 41 233 41 568 l0 274
-47 -1 c-27 -1 -83 -7 -125 -14z"/>
</g>
</svg>
